<?xml version="1.0" encoding="iso-8859-1"?>
<!-- Generator: Adobe Illustrator 17.1.0, SVG Export Plug-In . SVG Version: 6.00 Build 0)  -->
<!DOCTYPE svg PUBLIC "-//W3C//DTD SVG 1.1//EN" "http://www.w3.org/Graphics/SVG/1.1/DTD/svg11.dtd">
<svg version="1.1" id="Capa_1" xmlns="http://www.w3.org/2000/svg" xmlns:xlink="http://www.w3.org/1999/xlink" x="0px" y="0px"
	 viewBox="0 0 209.171 209.171" style="enable-background:new 0 0 209.171 209.171;" xml:space="preserve">
<path d="M73.336,26.183v-7.773c0-1.698,1.381-3.08,3.079-3.08h4.945c5.19,0,9.926-3.152,12.063-8.031
	C95.367,2.865,99.749,0,104.585,0s9.219,2.865,11.161,7.298c2.139,4.879,6.873,8.031,12.063,8.031h4.945
	c1.698,0,3.079,1.381,3.079,3.08v7.773c0,1.698-1.381,3.08-3.079,3.08h-56.34C74.717,29.262,73.336,27.881,73.336,26.183z
	 M62.544,171.395h14.417v-14.417H62.544V171.395z M62.544,84.694h14.417V70.277H62.544V84.694z M176.93,46.586v142.558
	c0,11.042-8.983,20.026-20.026,20.026H52.267c-11.043,0-20.026-8.984-20.026-20.026V46.586c0-11.042,8.983-20.026,20.026-20.026
	h11.088c0.202,7.036,5.976,12.702,13.06,12.702h56.34c7.084,0,12.858-5.666,13.06-12.702h11.088
	C167.947,26.56,176.93,35.544,176.93,46.586z M94.866,77.4c0,2.761,2.238,5,5,5h45.133c2.762,0,5-2.239,5-5s-2.238-5-5-5H99.866
	C97.104,72.4,94.866,74.639,94.866,77.4z M94.866,121.25c0,2.761,2.238,5,5,5h40.109c2.762,0,5-2.239,5-5s-2.238-5-5-5H99.866
	C97.104,116.25,94.866,118.488,94.866,121.25z M86.961,151.978c0-2.761-2.238-5-5-5H57.544c-2.762,0-5,2.239-5,5v24.417
	c0,2.761,2.238,5,5,5h24.417c2.762,0,5-2.239,5-5V151.978z M86.961,108.627c0-2.761-2.238-5-5-5H57.544c-2.762,0-5,2.239-5,5v24.417
	c0,2.761,2.238,5,5,5h24.417c2.762,0,5-2.239,5-5V108.627z M86.961,65.277c0-2.761-2.238-5-5-5H57.544c-2.762,0-5,2.239-5,5v24.417
	c0,2.761,2.238,5,5,5h24.417c2.762,0,5-2.239,5-5V65.277z M152.504,165.099c0-2.761-2.238-5-5-5H99.866c-2.762,0-5,2.239-5,5
	s2.238,5,5,5h47.639C150.266,170.099,152.504,167.86,152.504,165.099z M62.544,128.044h14.417v-14.417H62.544V128.044z"/>
<g>
</g>
<g>
</g>
<g>
</g>
<g>
</g>
<g>
</g>
<g>
</g>
<g>
</g>
<g>
</g>
<g>
</g>
<g>
</g>
<g>
</g>
<g>
</g>
<g>
</g>
<g>
</g>
<g>
</g>
</svg>
