<?xml version="1.0" encoding="iso-8859-1"?>
<!-- Generator: Adobe Illustrator 18.0.0, SVG Export Plug-In . SVG Version: 6.00 Build 0)  -->
<!DOCTYPE svg PUBLIC "-//W3C//DTD SVG 1.1//EN" "http://www.w3.org/Graphics/SVG/1.1/DTD/svg11.dtd">
<svg version="1.1" id="Capa_1" xmlns="http://www.w3.org/2000/svg" xmlns:xlink="http://www.w3.org/1999/xlink" x="0px" y="0px"
	 viewBox="0 0 56.011 56.011" style="enable-background:new 0 0 56.011 56.011;" xml:space="preserve">
<g>
	<g>
		<path style="fill:#6A3311;" d="M14.605,34.5c0-11.322,9.178-20.5,20.5-20.5c0.244,0,0.48,0.028,0.721,0.036
			C33.735,6.512,27.028,1,19.06,1C9.42,1,1.605,9.059,1.605,19c0,8.386,5.569,15.412,13.096,17.411
			C14.643,35.781,14.605,35.145,14.605,34.5z"/>
		<path style="fill:#6A3311;" d="M15.83,37.745l-1.385-0.367C6.296,35.214,0.605,27.656,0.605,19c0-10.477,8.279-19,18.455-19
			c8.186,0,15.477,5.662,17.73,13.769l0.365,1.312l-1.36-0.045c-0.113-0.003-0.226-0.011-0.338-0.019
			C35.339,15.009,35.223,15,35.105,15c-10.752,0-19.5,8.748-19.5,19.5c0,0.556,0.03,1.15,0.092,1.818L15.83,37.745z M19.06,2
			C9.986,2,2.605,9.626,2.605,19c0,7.263,4.461,13.658,11.008,16.023c-0.005-0.178-0.008-0.352-0.008-0.523
			c0-11.635,9.291-21.142,20.842-21.49C32.058,6.464,25.908,2,19.06,2z"/>
	</g>
	<g>
		<path style="fill:#6A3311;" d="M14.605,34.5c0-11.322,9.178-20.5,20.5-20.5c0.244,0,0.48,0.028,0.721,0.036
			C33.735,6.512,27.028,1,19.06,1C9.42,1,1.605,9.059,1.605,19c0,8.386,5.569,15.412,13.096,17.411
			C14.643,35.781,14.605,35.145,14.605,34.5z"/>
		<path style="fill:#6A3311;" d="M15.83,37.745l-1.385-0.367C6.296,35.214,0.605,27.656,0.605,19c0-10.477,8.279-19,18.455-19
			c8.186,0,15.477,5.662,17.73,13.769l0.365,1.312l-1.36-0.045c-0.113-0.003-0.226-0.011-0.338-0.019
			C35.339,15.009,35.223,15,35.105,15c-10.752,0-19.5,8.748-19.5,19.5c0,0.556,0.03,1.15,0.092,1.818L15.83,37.745z M19.06,2
			C9.986,2,2.605,9.626,2.605,19c0,7.263,4.461,13.658,11.008,16.023c-0.005-0.178-0.008-0.352-0.008-0.523
			c0-11.635,9.291-21.142,20.842-21.49C32.058,6.464,25.908,2,19.06,2z"/>
	</g>
	<path style="fill:#8C572C;" d="M16.099,26.839c0.616-1.527,1.415-2.958,2.363-4.277C18.05,21.088,16.711,20,15.105,20
		c-1.933,0-3.5,1.567-3.5,3.5s1.567,3.5,3.5,3.5C15.453,27,15.782,26.934,16.099,26.839z"/>
	<g>
		<path style="fill:#A46F3E;" d="M2.605,16c0,0,1.75,1.563,5,2"/>
		<path style="fill:#A46F3E;" d="M7.606,19c-0.044,0-0.09-0.003-0.135-0.009c-3.514-0.473-5.452-2.173-5.533-2.245
			c-0.412-0.368-0.448-1-0.08-1.412c0.366-0.412,0.995-0.447,1.409-0.083c0.042,0.036,1.625,1.375,4.471,1.758
			c0.547,0.074,0.932,0.577,0.858,1.125C8.528,18.636,8.099,19,7.606,19z"/>
	</g>
	<g>
		<path style="fill:#A46F3E;" d="M7.605,14c0,1.658-1.342,3-3,3"/>
		<path style="fill:#A46F3E;" d="M4.605,18c-0.552,0-1-0.447-1-1s0.448-1,1-1c1.103,0,2-0.897,2-2c0-0.553,0.448-1,1-1s1,0.447,1,1
			C8.605,16.206,6.811,18,4.605,18z"/>
	</g>
	<circle style="fill:#4C312C;" cx="16.105" cy="9.5" r="3.5"/>
	<g>
		<path style="fill:#A46F3E;" d="M28.605,4c0,0,0.312,4.5-3,6c0,0-2.063,0.438-2,2"/>
		<path style="fill:#A46F3E;" d="M23.604,13c-0.534,0-0.977-0.422-0.999-0.96c-0.073-1.829,1.59-2.724,2.671-2.99
			c2.539-1.232,2.333-4.945,2.331-4.983c-0.035-0.55,0.381-1.026,0.931-1.063c0.549-0.038,1.026,0.377,1.064,0.927
			c0.015,0.212,0.316,5.214-3.585,6.98l-0.205,0.067c-0.007,0.001-1.235,0.308-1.208,0.981c0.022,0.552-0.407,1.018-0.959,1.039
			C23.631,13,23.618,13,23.604,13z M25.605,10h0.01H25.605z"/>
	</g>
	<g>
		<path style="fill:#A46F3E;" d="M27.605,8c0,0-3.625-1.25-4-1"/>
		<path style="fill:#A46F3E;" d="M27.605,9c-0.108,0-0.218-0.018-0.326-0.055c-1.304-0.449-2.938-0.93-3.431-0.975
			c-0.398,0.1-0.833-0.055-1.075-0.416c-0.306-0.46-0.182-1.08,0.277-1.387c0.369-0.246,0.787-0.525,4.881,0.887
			c0.522,0.18,0.799,0.749,0.619,1.271C28.408,8.74,28.02,9,27.605,9z M24.16,7.832c0,0-0.001,0.001-0.001,0.001
			C24.159,7.833,24.159,7.832,24.16,7.832z"/>
	</g>
	<g>
		<path style="fill:#A46F3E;" d="M52.489,42.267c-2.305-0.929-3.421-3.55-2.493-5.855c0.444-1.102,1.281-1.922,2.279-2.387
			c-1.706-1.026-2.472-3.157-1.704-5.063c0.17-0.423,0.416-0.788,0.696-1.117c-0.443-0.063-0.885-0.173-1.319-0.347
			c-2.882-1.161-4.277-4.438-3.116-7.319c0.26-0.645,0.63-1.21,1.073-1.694c-1.076-0.859-2.254-1.623-3.531-2.27
			c-10.098-5.119-22.435-1.083-27.554,9.016s-1.083,22.435,9.016,27.554s22.435,1.083,27.554-9.016
			c0.201-0.396,0.362-0.8,0.535-1.202C53.444,42.541,52.96,42.457,52.489,42.267z"/>
		<path style="fill:#A46F3E;" d="M35.083,56.011c-3.332,0-6.641-0.783-9.699-2.334c-5.123-2.597-8.927-7.032-10.713-12.49
			c-1.786-5.458-1.339-11.285,1.257-16.407s7.033-8.927,12.491-10.713c5.458-1.786,11.285-1.341,16.407,1.257
			c1.31,0.663,2.555,1.464,3.703,2.379l0.836,0.668l-0.723,0.789c-0.382,0.417-0.679,0.886-0.883,1.394
			c-0.952,2.365,0.197,5.064,2.563,6.018c0.336,0.136,0.69,0.229,1.084,0.284l1.797,0.254l-1.174,1.384
			c-0.244,0.287-0.418,0.563-0.53,0.843c-0.574,1.426-0.03,3.037,1.292,3.833l1.612,0.97l-1.706,0.793
			c-0.814,0.379-1.444,1.038-1.773,1.854c-0.35,0.867-0.34,1.818,0.026,2.679c0.366,0.859,1.045,1.525,1.913,1.875l0,0
			c0.325,0.132,0.69,0.207,1.116,0.23l1.427,0.078l-0.667,1.561c-0.144,0.339-0.287,0.679-0.456,1.012
			c-2.598,5.123-7.033,8.928-12.491,10.714C39.592,55.653,37.332,56.011,35.083,56.011z M35.125,14.99
			c-2.041,0-4.089,0.323-6.084,0.977c-4.95,1.62-8.974,5.071-11.329,9.717c-2.355,4.646-2.76,9.931-1.141,14.881
			s5.07,8.974,9.716,11.329c4.646,2.354,9.93,2.76,14.881,1.14c4.946-1.619,8.967-5.064,11.322-9.705
			c-0.128-0.04-0.254-0.084-0.377-0.134c-1.363-0.55-2.43-1.596-3.006-2.947c-0.575-1.352-0.59-2.847-0.041-4.21
			c0.333-0.823,0.856-1.544,1.524-2.112c-1.29-1.42-1.699-3.475-0.949-5.337c0.016-0.039,0.032-0.077,0.049-0.116
			c-0.039-0.015-0.079-0.03-0.118-0.046c-3.388-1.365-5.034-5.232-3.67-8.62c0.16-0.396,0.357-0.775,0.593-1.134
			c-0.817-0.587-1.68-1.111-2.575-1.565C41.148,15.701,38.146,14.99,35.125,14.99z"/>
	</g>
	<circle style="fill:#6A3311;" cx="33.81" cy="25.996" r="3.5"/>
	<circle style="fill:#4C312C;" cx="27.48" cy="38.483" r="3.5"/>
	<circle style="fill:#8C572C;" cx="40.432" cy="41.685" r="3.5"/>
	<path style="fill:#8C572C;" d="M40.137,55.429c-0.152,0-0.306-0.034-0.451-0.108c-0.493-0.249-0.689-0.852-0.44-1.344
		c0.427-0.842-0.622-2.557-2.664-3.593c-0.493-0.25-0.689-0.852-0.44-1.344s0.851-0.691,1.344-0.439
		c3.001,1.521,4.557,4.28,3.543,6.28C40.854,55.229,40.502,55.429,40.137,55.429z"/>
	<path style="fill:#4C312C;" d="M40.774,20.997c-0.152,0-0.306-0.034-0.451-0.108c-2.458-1.246-3.445-4.262-2.199-6.721
		c0.25-0.492,0.851-0.692,1.344-0.439c0.493,0.249,0.689,0.851,0.44,1.344c-0.748,1.476-0.156,3.285,1.319,4.033
		c0.493,0.249,0.689,0.852,0.44,1.344C41.491,20.797,41.139,20.997,40.774,20.997z"/>
	<path style="fill:#8C572C;" d="M22.385,30.734c-0.152,0-0.306-0.034-0.451-0.108c-0.996-0.505-1.69-1.372-2.003-2.361
		c-0.276,0.153-0.57,0.281-0.876,0.382c-1.27,0.414-2.624,0.311-3.816-0.294c-0.493-0.25-0.689-0.852-0.44-1.344
		c0.25-0.492,0.851-0.692,1.344-0.439c0.716,0.363,1.528,0.426,2.29,0.176c0.761-0.249,1.38-0.779,1.742-1.495
		c0.25-0.492,0.851-0.692,1.344-0.439c0.493,0.249,0.689,0.852,0.44,1.344c-0.499,0.983-0.104,2.189,0.88,2.688
		c0.493,0.249,0.689,0.852,0.44,1.344C23.102,30.534,22.75,30.734,22.385,30.734z"/>
	<path style="fill:#8C572C;" d="M23.138,50.932c-0.715,0-1.479-0.194-2.27-0.667c-0.474-0.284-0.628-0.898-0.344-1.372
		c0.283-0.473,0.897-0.627,1.372-0.345c2.205,1.322,3.949-1.329,4.022-1.442c1.646-3.09,5.292-2.686,5.447-2.662
		c0.548,0.067,0.938,0.566,0.871,1.114c-0.067,0.547-0.577,0.939-1.11,0.871c-0.114-0.016-2.453-0.246-3.485,1.688
		C26.881,49.303,25.211,50.932,23.138,50.932z"/>
</g>
<g>
</g>
<g>
</g>
<g>
</g>
<g>
</g>
<g>
</g>
<g>
</g>
<g>
</g>
<g>
</g>
<g>
</g>
<g>
</g>
<g>
</g>
<g>
</g>
<g>
</g>
<g>
</g>
<g>
</g>
</svg>
