<svg height="512" viewBox="0 0 59 58" width="512" xmlns="http://www.w3.org/2000/svg"><g id="033---Cooky" fill="none"><path id="Shape" d="m56.59 20.06c-.0605237-.2014592-.219067-.3584892-.4210974-.417078s-.4199874-.0107439-.5789026.127078c-2.3700724 1.8019868-5.703075 1.5934081-7.83-.49-.2064449-.2079738-.5277675-.249169-.78-.1-2.1121588 1.226662-4.7570932 1.0505192-6.6879388-.4453918-1.9308455-1.495911-2.7621651-4.0129753-2.1020612-6.3646082.094943-.3166105-.0709503-.6527626-.38-.77-1.8917249-.7251596-3.2897478-2.35600345-3.717273-4.33633211-.4275251-1.98032866.1731906-4.04267214 1.597273-5.48366789.1383359-.1561371.1888807-.37137398.1345048-.5727663-.0543759-.20139231-.2063827-.36194025-.4045048-.4272337-12.840607-2.90360707-26.02608678 3.20638069-32.11171003 14.8801681-6.08562325 11.6737875-3.54439779 25.9822115 6.18886054 34.846511 9.73325829 8.8642995 24.21630009 10.0602624 35.27177219 2.9126293 11.0554721-7.1476332 15.909358-20.8453928 11.8210773-33.3593084z" fill="#cb8252"/><circle id="Oval" cx="40" cy="6" fill="#a56a43" r="2"/><circle id="Oval" cx="44" cy="14" fill="#a56a43" r="2"/><circle id="Oval" cx="52" cy="15" fill="#a56a43" r="2"/><rect id="Rectangle-path" fill="#603e26" height="4.9" rx="1.12" transform="matrix(.707 -.707 .707 .707 -19.811 42.168)" width="4.9" x="38.545" y="42.548"/><rect id="Rectangle-path" fill="#603e26" height="4.9" rx="1.12" transform="matrix(.707 -.707 .707 .707 -27.739 33.033)" width="4.9" x="23.554" y="47.551"/><rect id="Rectangle-path" fill="#603e26" height="4.9" rx="1.12" transform="matrix(.707 -.707 .707 .707 -19.893 23.976)" width="4.9" x="16.545" y="33.551"/><rect id="Rectangle-path" fill="#603e26" height="4.9" rx="1.12" transform="matrix(.707 -.707 .707 .707 -9.67 34.66)" width="4.9" x="34.553" y="26.553"/><rect id="Rectangle-path" fill="#603e26" height="4.9" rx="1.12" transform="matrix(.707 -.707 .707 .707 -5.58 20.538)" width="4.9" x="19.551" y="14.554"/><g fill="#805333"><circle id="Oval" cx="10" cy="27" r="1"/><circle id="Oval" cx="13" cy="43" r="1"/><circle id="Oval" cx="30" cy="40" r="1"/><circle id="Oval" cx="35" cy="50" r="1"/><circle id="Oval" cx="47" cy="35" r="1"/><circle id="Oval" cx="25" cy="28" r="1"/><circle id="Oval" cx="31" cy="14" r="1"/><circle id="Oval" cx="15" cy="12" r="1"/></g></g></svg>